<?xml version="1.0" encoding="utf-8"?>
<!-- Generator: Adobe Illustrator 22.0.0, SVG Export Plug-In . SVG Version: 6.00 Build 0)  -->
<svg version="1.1" id="Layer_1" xmlns="http://www.w3.org/2000/svg" xmlns:xlink="http://www.w3.org/1999/xlink" x="0px" y="0px"
	 viewBox="0 0 194.3 99.8" style="enable-background:new 0 0 194.3 99.8;" xml:space="preserve">
<style type="text/css">
	.st0{fill:#FFFFFF;}
</style>
<g>
	<path class="st0" d="M149.7,30.6c0,1.6,0,2.9,0,4.3c-0.1,5-0.1,10,0.3,15c0,0.1-0.1,0.2-0.2,0.6c-1.7-6.8-3.3-13.3-5-19.9
		c-1.9,0.1-3.8,0.3-5.9,0.4c0,2.7-0.2,5.2,0,7.7c0.7,8.1,0.9,16.3,0.9,24.4c0,1.6-0.1,3.2,0.3,4.9c1.7-0.5,3.6,0.3,4.8-1.5
		c-0.9-5.3-1.7-19.5-1.2-21c2.3,7.6,4.5,15.2,6.9,22.9c1.5,0.1,2.8,0.2,4.3,0.2c0-0.9-0.1-1.6-0.1-2.3c-0.3-2.9-0.8-5.9-0.8-8.8
		c-0.2-8.1-0.2-16.2-0.2-24.3c0-2.8-0.1-2.8-2.9-2.7C150.4,30.5,150.1,30.6,149.7,30.6z"/>
	<path class="st0" d="M176.4,67.5c-0.1-1.1-0.3-2.1-0.4-3.1c-0.1-6.3-0.2-12.6-0.4-18.9c-0.2-4.7-0.5-9.4-0.7-13.9
		c-1.2-0.9-2.4-0.8-3.7-0.8c-0.8,0-1.1,0.4-1,1.2c0.1,1.2,0.2,2.5,0.2,3.7c0.1,2.7,0.2,5.3,0.2,8c0,1.5,0,3,0,4.5
		c-0.4-0.5-0.6-1-0.8-1.5c-1.2-4.1-2.4-8.2-3.6-12.3c-0.3-0.9-0.5-1.8-0.8-2.7c-0.3-0.9-0.9-1.4-1.9-1.3c-1.1,0.1-2.2,0-3.3,0
		c-0.4,1.7-0.8,3.2-0.6,4.8c0.2,1.2,0.3,2.3,0.3,3.5c0,8-0.1,16-0.1,23.9c0,1.9,0.1,3.8,0.1,5.6c1.8-0.2,3.3-0.3,5-0.5
		c-1.1-7-0.5-14.1-0.3-21.2c1.8,7.3,4.6,14.2,5.9,21.7C172.8,68.1,174.6,68.1,176.4,67.5z"/>
	<path class="st0" d="M100.7,29.1c-0.1,0.6-0.2,0.9-0.2,1.3c-0.1,3.1-0.2,6.3-0.1,9.4c0.1,9,0.2,18,0.4,27.1c0,0.4,0.1,0.8,0.2,1.4
		c3.5,0,7,0,10.6,0c-0.2-1.6-0.4-3-0.5-4.4c-2.1,0-4,0-5.9,0c-0.7-1.3-0.3-2.6-0.2-3.9c0-1.5,0-3.1,0-4.6c0-3.6,0-7.2,0-10.7
		c0-0.8,0.4-1.2,1.3-1.3c0.5,0,1-0.1,1.5-0.1c1.5-0.2,3-0.3,4.6-0.5c-0.2-1.4-0.4-2.7-0.5-3.9c-2.2-0.5-4.5,0.7-6.7-0.1
		c0-1.6,0-3.1,0-4.8c2.9,0,5.6,0,8.4,0c-0.2-1.6-0.4-2.9-0.5-4.4c-1.9-0.1-3.8-0.2-5.8-0.3c0-0.1-0.1-0.2-0.1-0.4
		c1.2-0.8,2.4-1.7,3.7-2.6c0.2-0.9-0.4-1.6-1.3-2.3c-1.3,0.9-2.7,1.8-3.9,2.6c0.3,0.9,0.5,1.6,0.7,2.4
		C104.3,29.1,102.6,29.1,100.7,29.1z"/>
	<path class="st0" d="M76.7,68.5c1.6-0.3,2.9-0.5,4.1-0.7c0-3.9,0-7.6,0-11.3c0-3.7,0.1-7.5,0.2-11.3c0.5,0,0.8,0,1.1,0
		c0.3,0,0.6,0.1,1,0.2c1.8,8,5.4,15.3,8.2,23.1c1.6-0.3,3-0.6,4.7-0.9c-3.2-7.4-6-14.7-7.5-22.5c0.6-0.3,1.1-0.7,1.7-1.1
		c3.6-2.4,4.4-4.6,3.8-8.8c-0.2-1.3-0.8-2.5-2-3.2c-4.9-2.6-9.9-3-15.1-1.1C75.9,43.4,75.9,55.8,76.7,68.5z"/>
	<path class="st0" d="M185.9,64.5c-0.7-3-0.7-17,0.1-19.6c2.3-0.1,4.7-0.2,7.2-0.4c-0.2-1.9-0.3-3.6-0.4-5.3
		c-2.2,0.2-4.3,0.4-6.4,0.6c-0.9-1.9-1-3.5-0.1-5.3c2.7,0,5.4,0,8.2,0c-0.1-1.5-0.2-2.9-0.4-4.5c-4.5,0-8.7,0-13.1,0
		c0.2,12.9,0.3,25.6,0.5,38.2c0.3,0.2,0.4,0.3,0.5,0.3c3.5,1.2,7,0.4,10.5,0.1c0.6,0,0.9-0.5,0.9-1.2c-0.1-1-0.2-2.1-0.4-3.1
		C190.4,64.5,188.2,64.5,185.9,64.5z"/>
	<path class="st0" d="M45.4,82.8c-0.2-0.3-0.3-0.4-0.3-0.5c-0.1-0.4-0.1-0.7-0.1-1.1c-0.3-4.1-0.3-8.1-0.1-12.2
		c0.1-2.1,0.2-4.2,0.2-6.3c0-5.1,0-10.1,0-15.2c0-3.5-0.4-6.9,0-10.4c0.3-2.8,0-5.5-0.1-8.3c-1.3-0.1-2.5-0.1-3.8-0.2
		c-0.1,0.7-0.1,1.1-0.1,1.6c0.1,4.7,0.2,9.4,0.3,14.1c0.1,3.3,0.3,6.7,0.3,10c0,6.8-0.1,13.7-0.1,20.5c0,3.3-0.1,6.5-0.2,9.8
		c-0.1,2.1,0.2,2.6,2.3,2.6c2.8,0,5.5,0,8.4,0c0-1.4,0-2.8,0-4.4C49.7,82.8,47.5,82.8,45.4,82.8z"/>
	<path class="st0" d="M117.6,68.6c1-0.2,1.7-0.4,2.3-0.5c1.4-0.2,2-0.9,2.3-2.3c0.7-3.9,1.5-7.9,2.3-11.8c0.2-1.1,0.5-2.1,0.7-3.2
		c1,0,1.7,0,2.5,0c1,6,2,11.9,2.9,17.6c0.3,0.1,0.4,0.2,0.5,0.2c0.6-0.1,1.2-0.2,1.8-0.3c1.7-0.3,1.8-0.5,1.6-2.2
		c-0.7-4.2-1.3-8.4-1.9-12.6c-0.6-3.8-1-7.7-1.6-11.5c-0.4-2.6-1-5.1-1.4-7.6c-0.7-4,0.4-3.8-4.6-4c-0.1,0-0.2,0.1-0.6,0.2
		C121.9,43.1,119.8,55.7,117.6,68.6z"/>
	<path class="st0" d="M36.7,50.9c-0.2-4.3-0.1-8.6-1.4-12.7c-0.7-2.3-1.3-4.7-2.9-6.6c-2.6-3.2-4.6-3.7-7.3-2.3
		c-1.4,0.7-2.8,2-3.5,3.4c-1.2,2.3-2.2,4.9-2.8,7.4c-1,4.4-1,8.8-0.5,13.3c0.3,3.4,0.9,6.8,2.3,9.9c0.7,1.7,1.7,3.5,3.5,4.1
		c5.5,1.7,10.2-1.2,11.3-6.1C36,58,36.2,54.4,36.7,50.9z"/>
	<path class="st0" d="M69.6,48.5c0.2-4.2-0.2-8.3-1.1-12.3c-0.7-3.2-2.4-5.3-5.5-6.4c-3.6-1.4-6.6-0.2-8.6,3.1
		c-1.4,2.3-2.3,4.8-2.7,7.5c-0.7,4.2-0.8,8.5-0.2,12.7c0.5,3.5,1.1,7,2.3,10.3c1.5,4,3.8,5.8,7.6,5.3c2.5-0.3,4.8-1.3,5.7-3.8
		c1-2.7,1.6-5.6,2-8.4C69.6,53.8,69.5,51.1,69.6,48.5z"/>
	<path class="st0" d="M0.2,67.5c1.2-0.3,2.2-0.5,3.2-0.8c3.4-1,6-3.1,7.8-6.1c0.9-1.5,1.4-3.2,2-4.8c1.3-3.4,1.5-7,1.1-10.6
		c-0.4-4-2-7.5-4.2-10.8c-1.8-2.6-4-4.8-7.3-5.8c-1.7-0.5-2.3-0.1-2.4,1.7c0,0.3-0.1,0.6,0,0.9c0.6,2,0.3,4,0.2,6.1
		c-0.1,2.7-0.5,5.4-0.4,8.1c0.1,6.1-0.6,12.2-0.1,18.3C0.3,64.8,0.2,65.9,0.2,67.5z"/>
	<path class="st0" d="M58.1,20.6l-0.3,0.8v-0.7l-0.5,0.5l-2.7-2.4l6.1-1.9l-6.4,1.6L52.8,17l1.7-0.1l2-0.6c0.4-0.5,0.9-0.3,0.9-0.3
		c1-0.4,7.1-1.2,7.1-1.2c-3.1-0.3,1.2-1.4,1.2-1.4c1.1-0.4,3.4-0.8,3.9-1c1.2-0.6,2.4-1.1,2.4-1.1l5.9-3.1l1.1-0.5l5.5-3.6
		c3-2.9,4.3-2.5,4.3-2.5c5-3.8,9.7,0.4,9.7,0.4c4.3,3,1.4,9.6,1.4,9.6c0.6,1.1,0.5,2.3,0.5,2.3c-0.9-0.5-1.9-1.7-1.9-1.7
		c-1.3-0.9-4.2,4.9-4.2,4.9c-6.3,5.9-6.3,4.4-6.3,4.4l-2.4,2.2c0,0,0.2,0.7-0.5,1.6c-0.7,1-2.2,1.6-2.2,1.9c0,0.6,1.4,2,1.4,2
		c2.5,0.6,2.9,1.9,2.9,1.9c-2-1-3-1.1-3-1.1c-0.5-0.3-4.2,0.8-3.2-0.1l2.4-0.6c-1.1-1.1-1.8-2.8-1.6-2.2c0,0.1,0.1-1.9,0-1.4
		c0.2,0.4-6.5-4.4-6.5-4.4c-3.1-1.6-2.8-3.4-2.8-3.4c-4.5,1.2-2.3-0.2-2.3-0.2l-5.4,1.6c0.1-0.6,2.3-2.1,2.3-2.1l0.4-0.3
		C67.5,16.8,61.4,20.1,58.1,20.6z"/>
</g>
</svg>
