<?xml version="1.0" encoding="utf-8"?>
<!-- Generator: Adobe Illustrator 16.0.4, SVG Export Plug-In . SVG Version: 6.00 Build 0)  -->
<!DOCTYPE svg PUBLIC "-//W3C//DTD SVG 1.1//EN" "http://www.w3.org/Graphics/SVG/1.1/DTD/svg11.dtd">
<svg version="1.1" id="Layer_1" xmlns="http://www.w3.org/2000/svg" xmlns:xlink="http://www.w3.org/1999/xlink" x="0px" y="0px"
	 width="194.313px" height="99.756px" viewBox="0 0 194.313 99.756" enable-background="new 0 0 194.313 99.756"
	 xml:space="preserve">
<g>
	<g>
		<path fill="#FFFFFF" d="M89.282,97.9c-0.057-0.507-0.121-0.879-0.134-1.253c-0.064-2.075-0.18-4.147-0.067-6.229
			c0.08-1.433-0.037-2.875-0.039-4.313c-0.002-1.558,0.027-3.115,0.033-4.674c0.006-1.974,0-3.947,0-5.998
			c-0.831-0.092-1.665-0.184-2.51-0.275c0,2.316-0.04,4.586,0.014,6.854c0.056,2.259,0.199,4.519,0.094,6.788
			c-1.145-4.535-2.176-9.092-3.197-13.68c-1.024-0.074-2.091-0.15-3.145-0.226c-0.271,0.227-0.289,0.521-0.283,0.826
			c0.021,1.155,0.068,2.313,0.048,3.468c-0.042,2.018-0.137,4.033-0.196,6.049c-0.041,1.496-0.131,2.994-0.086,4.488
			c0.078,2.496,0.243,4.988,0.38,7.481c0.018,0.332,0.085,0.661,0.13,1c0.793,0,1.523,0,2.293,0
			c-0.038-0.344-0.094-0.653-0.102-0.964c-0.038-1.438-0.077-2.875-0.086-4.314c-0.009-1.417,0.033-2.836,0.033-4.254
			c0-2.076-0.021-4.154-0.024-6.23c0-0.219,0.044-0.438,0.068-0.656c0.159,0.176,0.219,0.344,0.243,0.515
			c0.407,2.976,1.286,5.849,1.925,8.772c0.394,1.807,1.032,3.56,1.562,5.337c0.104,0.345,0.21,0.688,0.303,1.035
			c0.056,0.214,0.156,0.376,0.393,0.385C87.681,97.859,88.433,97.876,89.282,97.9z"/>
		<path fill="#FFFFFF" d="M101.811,77.091c-0.196-0.271-0.357-0.547-0.572-0.775c-0.215-0.23-0.462-0.445-0.727-0.615
			c-0.946-0.6-2.005-0.91-3.105-0.999c-0.686-0.056-1.396-0.062-2.067,0.212c-1.085,0.439-1.777,1.246-2.242,2.29
			c-0.86,1.927-0.598,3.698,0.75,5.301c0.609,0.723,1.425,1.149,2.314,1.427c0.586,0.182,1.12,0.439,1.515,0.92
			c0.39,0.477,0.808,0.943,1.127,1.467c0.254,0.418,0.435,0.9,0.553,1.378c0.325,1.324,0.399,2.688,0.423,4.042
			c0.024,1.443-0.122,2.877-0.952,4.143c-0.181,0.273-0.334,0.545-0.71,0.567c-0.624,0.034-1.168-0.103-1.665-0.521
			c-0.816-0.684-1.174-1.543-1.139-2.584c0.011-0.299,0.026-0.596-0.178-0.844c-0.378-0.047-0.671,0.123-0.962,0.297
			c-0.307,0.184-0.611,0.374-0.931,0.527c-0.446,0.212-0.659,0.518-0.556,0.989c0.183,0.839,0.405,1.674,0.881,2.399
			c0.543,0.828,1.204,1.592,2.17,1.898c1.234,0.393,2.505,0.497,3.739-0.082c0.195-0.092,0.434-0.148,0.574-0.297
			c0.598-0.628,1.071-1.34,1.298-2.19c0.433-1.626,0.729-3.278,0.686-4.964c-0.035-1.336-0.123-2.673-0.253-4.002
			c-0.108-1.084-0.497-2.094-1.069-3.024c-0.445-0.726-1.004-1.349-1.771-1.748c-0.53-0.276-1.079-0.521-1.617-0.78
			c-0.379-0.18-0.778-0.326-1.13-0.547c-1.054-0.662-1.21-1.887-0.385-2.811c0.08-0.09,0.162-0.174,0.244-0.262
			c0.205-0.226,0.459-0.303,0.759-0.275c1.174,0.107,2.266,0.448,3.229,1.146c0.439,0.318,0.621,0.296,0.918-0.18
			C101.267,78.107,101.529,77.593,101.811,77.091z"/>
		<path fill="#FFFFFF" d="M112.956,75.111c-0.145-0.039-0.259-0.105-0.362-0.092c-1.574,0.196-3.151,0.055-4.726,0.062
			c-0.66,0.004-1.32-0.01-1.977,0.004c-0.559,0.012-0.662,0.131-0.65,0.682c0.012,0.559,0.054,1.116,0.051,1.674
			c-0.015,2.875-0.048,5.75-0.057,8.627c-0.006,1.836,0.062,3.674,0.025,5.508c-0.04,2.061,0.05,4.111,0.227,6.16
			c0.038,0.469,0.109,0.936,0.162,1.384c1.115-0.028,2.15-0.073,3.182-0.073c1.025,0,2.051,0.046,3.115,0.072
			c-0.059-0.987-0.115-1.914-0.175-2.877c-1.378-0.127-2.686,0.419-4.034,0.17c-0.05-0.846-0.145-1.662-0.137-2.477
			c0.013-2.076,0.066-4.152,0.113-6.229c0.026-1.115,0.064-2.23,0.104-3.347c0.021-0.598,0.151-0.743,0.73-0.795
			c0.577-0.052,1.153-0.103,1.733-0.12c0.65-0.02,1.305-0.004,2.032-0.004c0-0.963-0.175-1.836-0.184-2.751
			c-1.469-0.017-2.879,0.263-4.318-0.048c0.053-0.967,0.106-1.891,0.16-2.872c0.893-0.055,1.705-0.14,2.52-0.146
			c0.828-0.008,1.656,0.061,2.465,0.096C112.956,76.824,112.956,75.977,112.956,75.111z"/>
		<path fill="#FFFFFF" d="M76.437,98.292c0.012-0.252,0.055-0.485,0.033-0.712c-0.16-1.628-0.329-3.256-0.5-4.884
			c-0.198-1.863-0.402-3.727-0.601-5.59c-0.062-0.596-0.118-1.193-0.171-1.791c-0.154-1.791-0.307-3.579-0.634-5.352
			c-0.271-1.47-0.475-2.953-0.683-4.434c-0.048-0.328-0.246-0.409-0.491-0.395c-0.653,0.039-1.31,0.084-1.958,0.182
			c-0.42,0.064-0.654,0.352-0.65,0.805c0.003,0.18-0.035,0.357-0.068,0.535c-0.233,1.276-0.471,2.552-0.71,3.828
			c-0.503,2.688-1.033,5.371-1.509,8.064c-0.386,2.201-0.715,4.413-1.05,6.624c-0.116,0.769-0.189,1.546-0.245,2.32
			c-0.028,0.374,0.081,0.465,0.445,0.478c0.438,0.014,0.88-0.002,1.32,0.008c0.272,0.006,0.406-0.136,0.438-0.386
			c0.065-0.495,0.115-0.989,0.173-1.485c0.097-0.834,0.161-1.671,0.296-2.498c0.197-1.241,0.437-2.475,0.67-3.71
			c0.184-0.978,0.385-1.951,0.592-2.989c0.662,0.031,1.271,0.059,1.92,0.088c0.088,0.539,0.191,1.006,0.237,1.477
			c0.07,0.695,0.073,1.398,0.152,2.094c0.261,2.239,0.548,4.477,0.819,6.717c0.042,0.372,0.219,0.623,0.557,0.785
			C75.301,98.304,75.798,98.401,76.437,98.292z"/>
		<path fill="#FFFFFF" d="M57.022,76.931c-0.041,0.227-0.07,0.42-0.112,0.611c-0.274,1.27-0.53,2.542-0.518,3.852
			c0.003,0.458-0.035,0.918-0.064,1.375c-0.137,1.951-0.326,3.901-0.396,5.855c-0.077,2.135-0.054,4.274-0.045,6.412
			c0.003,0.97,0.069,1.939,0.106,2.975c0.595-0.059,1.16-0.055,1.692-0.184c0.731-0.176,1.467-0.392,2.15-0.703
			c1.011-0.463,1.663-1.347,2.269-2.242c0.286-0.426,0.533-0.889,0.733-1.361c0.216-0.512,0.349-1.059,0.532-1.587
			c0.449-1.304,0.826-2.627,0.945-4.005c0.093-1.072,0.133-2.15,0.176-3.227c0.029-0.759,0.038-1.52-0.198-2.256
			c-0.175-0.549-0.342-1.1-0.523-1.645c-0.568-1.699-1.497-3.18-2.792-4.408c-1.055-1.002-2.43-1.518-3.65-2.27
			c-0.269-0.166-0.585-0.037-0.678,0.26c-0.215,0.699-0.39,1.41-0.591,2.152C56.404,76.679,56.677,76.79,57.022,76.931z"/>
	</g>
	<path fill="#FFFFFF" d="M149.692,30.59c0,1.593,0.02,2.938-0.003,4.284c-0.086,5.003-0.117,10.007,0.288,15.002
		c0.01,0.115-0.091,0.24-0.248,0.616c-1.709-6.769-3.348-13.259-5.033-19.927c-1.878,0.139-3.812,0.281-5.898,0.435
		c0,2.7-0.18,5.226,0.033,7.719c0.689,8.136,0.92,16.282,0.898,24.442c-0.005,1.564-0.123,3.163,0.326,4.87
		c1.689-0.541,3.6,0.26,4.771-1.476c-0.93-5.312-1.704-19.525-1.171-21.026c2.265,7.565,4.539,15.169,6.853,22.897
		c1.47,0.079,2.849,0.153,4.349,0.233c-0.045-0.885-0.057-1.617-0.127-2.347c-0.278-2.947-0.77-5.89-0.83-8.841
		c-0.168-8.093-0.152-16.191-0.215-24.287c-0.02-2.775-0.053-2.799-2.913-2.701C150.417,30.497,150.061,30.553,149.692,30.59z"/>
	<path fill="#FFFFFF" d="M176.411,67.488c-0.136-1.141-0.334-2.113-0.356-3.09c-0.147-6.301-0.196-12.606-0.399-18.906
		c-0.152-4.68-0.49-9.354-0.737-13.945c-1.189-0.943-2.438-0.823-3.662-0.781c-0.78,0.026-1.054,0.403-0.956,1.209
		c0.146,1.221,0.202,2.455,0.248,3.685c0.098,2.652,0.182,5.305,0.242,7.958c0.034,1.514,0.005,3.031,0.005,4.546
		c-0.38-0.459-0.604-0.952-0.754-1.468c-1.198-4.085-2.381-8.174-3.57-12.263c-0.256-0.889-0.485-1.786-0.759-2.67
		c-0.288-0.933-0.872-1.411-1.924-1.339c-1.09,0.075-2.189,0.016-3.289,0.016c-0.426,1.718-0.805,3.187-0.559,4.769
		c0.176,1.155,0.269,2.336,0.269,3.505c-0.009,7.976-0.062,15.951-0.075,23.926c-0.004,1.881,0.081,3.765,0.123,5.61
		c1.755-0.17,3.327-0.322,5.021-0.486c-1.053-7.046-0.48-14.095-0.332-21.192c1.766,7.271,4.574,14.214,5.852,21.683
		C172.812,68.144,174.636,68.106,176.411,67.488z"/>
	<path fill="#FFFFFF" d="M100.729,29.125c-0.083,0.589-0.172,0.948-0.178,1.308c-0.058,3.147-0.169,6.296-0.136,9.443
		c0.097,9.023,0.25,18.045,0.39,27.068c0.006,0.408,0.101,0.816,0.175,1.377c3.531,0,6.967,0,10.59,0
		c-0.193-1.598-0.359-2.965-0.537-4.408c-2.086,0-3.988,0-5.889,0c-0.698-1.322-0.271-2.616-0.248-3.889
		c0.026-1.534,0.006-3.069,0.002-4.604c-0.011-3.581-0.028-7.16-0.028-10.739c0-0.819,0.44-1.24,1.259-1.282
		c0.495-0.025,0.985-0.075,1.479-0.124c1.507-0.152,3.015-0.308,4.587-0.47c-0.193-1.43-0.363-2.68-0.535-3.948
		c-2.238-0.542-4.451,0.738-6.717-0.092c0-1.558,0-3.058,0-4.771c2.863,0,5.598,0,8.418,0c-0.195-1.552-0.358-2.884-0.549-4.408
		c-1.938-0.087-3.844-0.174-5.751-0.26c-0.03-0.122-0.057-0.244-0.083-0.366c1.183-0.842,2.366-1.685,3.703-2.637
		c0.164-0.889-0.355-1.619-1.301-2.257c-1.34,0.891-2.65,1.76-3.938,2.616c0.27,0.907,0.49,1.65,0.729,2.444
		C104.327,29.125,102.619,29.125,100.729,29.125z"/>
	<path fill="#FFFFFF" d="M76.687,68.474c1.561-0.254,2.855-0.466,4.104-0.67c0-3.885-0.023-7.575,0.006-11.267
		c0.033-3.743,0.119-7.486,0.182-11.325c0.524,0,0.824-0.025,1.119,0.007c0.297,0.032,0.586,0.121,0.965,0.203
		c1.783,8.026,5.434,15.334,8.211,23.118c1.588-0.297,3.005-0.561,4.701-0.877c-3.246-7.407-5.984-14.708-7.538-22.524
		c0.555-0.347,1.129-0.695,1.692-1.059c3.635-2.351,4.354-4.575,3.83-8.849c-0.163-1.342-0.802-2.51-2.035-3.155
		c-4.894-2.555-9.946-3.011-15.127-1.13C75.853,43.433,75.853,55.807,76.687,68.474z"/>
	<g>
		<path fill="#FFFFFF" d="M140.686,97.787c-0.245-7.611-0.192-15.196-0.65-22.885c-0.592,0.096-1.139,0.18-1.687,0.271
			c-0.402,0.066-0.539,0.314-0.535,0.71c0.01,0.95-0.05,1.902-0.012,2.85c0.098,2.385,0.242,4.769,0.353,7.153
			c0.026,0.525-0.009,1.054-0.018,1.581c-0.157-0.061-0.208-0.121-0.226-0.189c-0.709-2.546-1.434-5.088-2.117-7.64
			c-0.396-1.481-0.722-2.981-1.064-4.419c-1.189-0.479-2.228,0.073-3.387-0.021c-0.009,0.533-0.015,0.984-0.027,1.436
			c-0.033,1.104-0.073,2.205-0.104,3.309c-0.016,0.641-0.047,1.283-0.026,1.924c0.042,1.334,0.119,2.666,0.166,4
			c0.041,1.074,0.054,2.15,0.092,3.225c0.068,1.797,0.135,3.592,0.222,5.388c0.057,1.194,0.15,2.388,0.229,3.584
			c0.786,0.132,1.46-0.044,2.135-0.179c0.305-0.061,0.392-0.25,0.365-0.564c-0.136-1.609-0.287-3.219-0.365-4.833
			c-0.146-3.052-0.25-6.106-0.363-9.159c-0.011-0.252-0.011-0.518,0.217-0.852c0.379,1.741,0.714,3.347,1.081,4.945
			c0.401,1.777,0.827,3.549,1.256,5.318c0.265,1.098,0.533,2.196,0.843,3.281c0.348,1.207,1.331,1.967,2.459,1.93
			C139.899,97.938,140.277,97.847,140.686,97.787z"/>
		<path fill="#FFFFFF" d="M185.296,75.295c-0.056,0.532-0.146,0.981-0.147,1.433c-0.009,2.104,0.006,4.207,0.017,6.312
			c0.006,1.026,0,2.054,0.036,3.079c0.066,1.846,0.175,3.689,0.243,5.533c0.079,2.129,0.137,4.258,0.207,6.387
			c0.01,0.334,0.012,0.668,0.05,0.998c0.063,0.512,0.112,0.544,0.63,0.562c0.716,0.025,1.44,0.002,2.15,0.08
			c1.309,0.145,2.6,0.076,3.996-0.129c-0.117-0.862-0.219-1.691-0.35-2.518c-0.05-0.318-0.346-0.35-0.603-0.367
			c-0.615-0.041-1.233-0.049-1.846-0.107c-0.603-0.06-1.199-0.166-1.831-0.256c-0.252-4.025-0.506-7.949-0.195-11.86
			c1.503-0.438,2.975-0.242,4.483-0.362c-0.044-0.966-0.082-1.852-0.124-2.768c-1.374-0.105-2.665,0.431-3.975,0.03
			c0-0.732-0.043-1.446,0.012-2.151c0.053-0.691,0.18-0.787,0.863-0.818c0.845-0.039,1.692-0.047,2.538-0.062
			c0.423-0.007,0.847,0,1.366,0c-0.081-0.914-0.139-1.725-0.242-2.529c-0.015-0.124-0.222-0.285-0.364-0.316
			c-0.245-0.058-0.51-0.031-0.766-0.031c-1.461,0.001-2.926,0.018-4.387,0.002C186.523,75.429,185.988,75.353,185.296,75.295z"/>
		<path fill="#FFFFFF" d="M177.722,84.774c0.707-0.181,1.288-0.286,1.838-0.479c0.741-0.262,1.442-0.661,1.75-1.416
			c0.521-1.281,0.57-2.608-0.014-3.893c-0.641-1.404-1.803-2.201-3.261-2.592c-2.127-0.57-4.224-0.36-6.294,0.283
			c-0.257,0.079-0.492,0.239-0.645,0.318c0,0.55,0,0.985,0,1.42c-0.003,1.641,0.002,3.281-0.009,4.922
			c-0.012,1.309-0.095,2.62-0.056,3.927c0.078,2.468,0.004,4.927-0.163,7.388c-0.083,1.203-0.06,2.413-0.074,3.619
			c-0.003,0.322,0.074,0.642,0.432,0.74c0.695,0.189,1.399,0.248,2.05,0.111c0.041-2.413,0.037-4.744,0.133-7.07
			c0.095-2.35-0.086-4.712,0.252-7.126c0.404,0.021,0.752,0.039,1.127,0.058c0.183,0.574,0.35,1.111,0.529,1.645
			c0.423,1.266,0.877,2.521,1.27,3.796c0.839,2.722,1.639,5.453,2.463,8.179c0.08,0.261,0.213,0.505,0.328,0.771
			c0.509-0.073,0.964-0.128,1.417-0.208c0.443-0.079,0.881-0.185,1.274-0.27C180.04,94.343,178.897,89.591,177.722,84.774z"/>
		<path fill="#FFFFFF" d="M127.38,98.493c-0.102-0.997-0.192-1.901-0.29-2.86c-0.529,0.042-0.988,0.084-1.445,0.108
			c-0.484,0.024-0.975,0.077-1.456,0.037c-1.289-0.107-1.367-0.208-1.385-1.476c-0.003-0.154,0.009-0.309,0.015-0.463
			c0.03-0.846,0.092-1.693,0.089-2.539c-0.01-1.949-0.05-3.898-0.076-5.848c-0.007-0.514-0.013-1.027-0.007-1.541
			c0.003-0.371,0.126-0.649,0.565-0.672c0.15-0.008,0.299-0.094,0.449-0.102c1.023-0.062,2.047-0.109,3.071-0.164
			c0.197-0.012,0.393-0.03,0.6-0.047c-0.104-0.986-0.201-1.918-0.294-2.809c-1.434-0.262-2.776,0.212-4.197,0.033
			c0-0.949,0-1.834,0-2.784c0.3-0.03,0.573-0.075,0.851-0.083c1.103-0.031,2.206-0.043,3.31-0.08
			c0.343-0.014,0.683-0.09,0.918-0.122c0-0.926,0-1.732,0-2.652c-2.637,0.204-5.199-0.098-7.857,0.322
			c0.095,0.784,0.238,1.513,0.262,2.245c0.076,2.283,0.138,4.568,0.141,6.853c0.003,2.336-0.101,4.672-0.096,7.007
			c0.002,1.822,0.09,3.645,0.161,5.465c0.024,0.709,0.106,1.414,0.169,2.171C123.064,98.493,125.206,98.493,127.38,98.493z"/>
		<path fill="#FFFFFF" d="M152.241,93.212c-0.113,1.266-0.819,1.98-1.668,2.605c-0.935,0.689-2.76,0.512-3.366-0.828
			c-0.446-0.985-0.872-1.98-0.949-3.066c-0.168-2.379-0.378-4.755-0.016-7.139c0.268-1.75,0.472-3.505,1.051-5.191
			c0.237-0.686,0.643-1.23,1.206-1.645c0.199-0.146,0.536-0.231,0.772-0.18c1.017,0.224,2.02,0.508,3.097,0.789
			c0.312-0.639,0.654-1.342,1.004-2.063c-0.099-0.087-0.163-0.168-0.249-0.212c-1.146-0.602-2.354-1.035-3.646-1.153
			c-1.236-0.112-2.32,0.259-3.175,1.218c-0.899,1.011-1.492,2.208-2.003,3.432c-0.615,1.479-0.816,3.078-0.881,4.659
			c-0.068,1.585,0.05,3.18,0.127,4.768c0.089,1.874,0.33,3.722,0.856,5.538c0.434,1.496,1.097,2.812,2.304,3.819
			c0.155,0.13,0.315,0.279,0.498,0.342c1.249,0.423,2.504,0.569,3.739-0.047c0.363-0.181,0.78-0.338,1.041-0.626
			c0.878-0.97,1.579-2.068,2.203-3.256C153.628,94.333,153.152,93.639,152.241,93.212z"/>
		<path fill="#FFFFFF" d="M167.532,86.817c0-0.257-0.012-0.513,0.003-0.769c0.151-2.782-0.214-5.477-1.334-8.048
			c-0.435-0.995-1.12-1.802-2.042-2.34c-1.016-0.595-2.136-0.793-3.22-0.165c-0.863,0.5-1.6,1.138-2.146,2.028
			c-0.778,1.267-1.319,2.6-1.523,4.064c-0.16,1.14-0.293,2.284-0.405,3.431c-0.276,2.793-0.145,5.582,0.164,8.364
			c0.055,0.507,0.132,1.024,0.291,1.505c0.45,1.354,1.311,2.423,2.443,3.284c0.713,0.544,1.481,0.907,2.409,0.838
			c0.357-0.027,0.719-0.003,1.077-0.017c1.391-0.055,2.491-0.566,3.041-1.938c0.112-0.285,0.228-0.569,0.322-0.862
			c0.272-0.855,0.376-1.74,0.52-2.625C167.499,91.324,167.571,89.078,167.532,86.817z"/>
	</g>
	<path fill="#FFFFFF" d="M185.866,64.458c-0.701-2.96-0.662-17.013,0.065-19.59c2.322-0.119,4.696-0.24,7.173-0.368
		c-0.158-1.921-0.296-3.615-0.435-5.29c-2.216,0.198-4.339,0.389-6.429,0.576c-0.875-1.895-0.989-3.525-0.096-5.291
		c2.703,0,5.38,0,8.168,0c-0.127-1.502-0.243-2.884-0.378-4.461c-4.46,0-8.684,0-13.104,0c0.156,12.861,0.314,25.622,0.47,38.245
		c0.292,0.205,0.378,0.301,0.487,0.338c3.471,1.176,6.972,0.372,10.461,0.131c0.65-0.046,0.947-0.541,0.876-1.193
		c-0.11-1.027-0.236-2.051-0.36-3.097C190.372,64.458,188.177,64.458,185.866,64.458z"/>
	<path fill="#FFFFFF" d="M45.437,82.81c-0.172-0.281-0.273-0.379-0.291-0.49c-0.053-0.365-0.08-0.734-0.108-1.102
		c-0.315-4.066-0.256-8.134-0.091-12.203c0.086-2.1,0.203-4.199,0.212-6.299c0.017-5.059-0.017-10.12-0.046-15.179
		c-0.021-3.458-0.352-6.944-0.017-10.365c0.276-2.797,0.001-5.497-0.132-8.337c-1.287-0.066-2.488-0.128-3.785-0.194
		c-0.057,0.656-0.139,1.139-0.131,1.62c0.084,4.69,0.168,9.381,0.281,14.071c0.083,3.333,0.29,6.663,0.299,9.994
		c0.015,6.844-0.053,13.688-0.118,20.532c-0.032,3.262-0.077,6.525-0.238,9.783c-0.102,2.057,0.247,2.557,2.276,2.555
		c2.757-0.004,5.514-0.001,8.394-0.001c0-1.447,0-2.823,0-4.384C49.709,82.81,47.517,82.81,45.437,82.81z"/>
	<path fill="#FFFFFF" d="M117.587,68.598c1.012-0.235,1.653-0.438,2.307-0.524c1.355-0.182,2.016-0.916,2.26-2.266
		c0.716-3.944,1.515-7.873,2.295-11.805c0.212-1.064,0.478-2.119,0.713-3.153c0.964,0,1.677,0,2.52,0
		c0.984,5.972,1.955,11.856,2.911,17.646c0.295,0.107,0.418,0.199,0.522,0.184c0.61-0.092,1.217-0.205,1.818-0.318
		c1.74-0.332,1.841-0.523,1.582-2.162c-0.664-4.203-1.303-8.41-1.918-12.621c-0.559-3.844-1.026-7.703-1.621-11.541
		c-0.393-2.552-0.99-5.073-1.401-7.623c-0.657-4.048,0.414-3.815-4.635-3.955c-0.115-0.003-0.233,0.066-0.649,0.193
		C121.909,43.059,119.767,55.651,117.587,68.598z"/>
	<path fill="#FFFFFF" d="M36.668,50.926c-0.211-4.301-0.073-8.583-1.377-12.726c-0.723-2.297-1.347-4.676-2.876-6.592
		c-2.562-3.207-4.611-3.701-7.338-2.269c-1.409,0.741-2.792,2.038-3.534,3.432c-1.233,2.323-2.222,4.862-2.813,7.425
		c-1.004,4.354-0.965,8.831-0.518,13.269c0.341,3.383,0.911,6.752,2.252,9.906c0.727,1.705,1.662,3.501,3.544,4.076
		c5.518,1.688,10.161-1.248,11.265-6.077C36.05,57.959,36.225,54.412,36.668,50.926z"/>
	<path fill="#FFFFFF" d="M69.618,48.485c0.156-4.157-0.152-8.265-1.05-12.339c-0.696-3.161-2.427-5.263-5.507-6.411
		c-3.622-1.35-6.589-0.211-8.642,3.138c-1.396,2.276-2.263,4.818-2.7,7.452c-0.702,4.23-0.774,8.523-0.225,12.749
		c0.451,3.468,1.142,6.986,2.346,10.254c1.481,4.021,3.803,5.77,7.649,5.309c2.509-0.3,4.841-1.324,5.739-3.762
		c0.997-2.699,1.609-5.583,2.021-8.439C69.628,53.823,69.515,51.138,69.618,48.485z"/>
	<path fill="#FFFFFF" d="M0.203,67.475c1.212-0.304,2.201-0.517,3.171-0.8c3.421-0.999,6.021-3.124,7.809-6.141
		c0.869-1.471,1.395-3.157,1.987-4.778c1.254-3.427,1.536-6.984,1.15-10.586c-0.423-3.957-2.029-7.513-4.203-10.764
		c-1.77-2.646-4.044-4.826-7.255-5.757c-1.68-0.488-2.266-0.104-2.363,1.666c-0.018,0.308-0.056,0.639,0.031,0.92
		c0.638,2.009,0.263,4.037,0.152,6.059c-0.148,2.712-0.474,5.427-0.432,8.137c0.084,6.105-0.557,12.207-0.061,18.313
		C0.277,64.839,0.203,65.947,0.203,67.475z"/>
	<path fill="#FFFFFF" d="M58.081,20.649l-0.347,0.792v-0.692l-0.462,0.519l-2.678-2.362l6.086-1.9l-6.425,1.614l-1.438-1.593
		l1.682-0.119l2.033-0.595c0.396-0.545,0.893-0.297,0.893-0.297c0.99-0.446,7.09-1.213,7.09-1.213
		c-3.133-0.296,1.242-1.427,1.242-1.427c1.127-0.363,3.398-0.758,3.916-1.003c1.227-0.58,2.408-1.108,2.408-1.108l5.867-3.104
		l1.112-0.549l5.53-3.552c3.001-2.932,4.266-2.479,4.266-2.479c4.966-3.764,9.713,0.387,9.713,0.387
		c4.265,3.023,1.389,9.615,1.389,9.615c0.645,1.138,0.495,2.278,0.495,2.278c-0.94-0.545-1.884-1.732-1.884-1.732
		c-1.287-0.895-4.212,4.904-4.212,4.904c-6.339,5.948-6.294,4.42-6.294,4.42l-2.407,2.217c0,0,0.243,0.669-0.471,1.65
		c-0.713,0.982-2.233,1.601-2.209,1.92c0.044,0.556,1.44,1.987,1.44,1.987c2.476,0.641,2.917,1.882,2.917,1.882
		c-2.027-0.966-3.033-1.088-3.033-1.088c-0.532-0.285-4.236,0.763-3.218-0.117l2.368-0.575c-1.123-1.139-1.759-2.795-1.612-2.206
		c0.017,0.063,0.084-1.886-0.025-1.413c0.25,0.446-6.491-4.363-6.491-4.363c-3.073-1.584-2.825-3.419-2.825-3.419
		c-4.5,1.213-2.33-0.248-2.33-0.248l-5.369,1.565c0.1-0.644,2.296-2.15,2.296-2.15l0.432-0.253
		C67.525,16.837,61.364,20.15,58.081,20.649z"/>
</g>
</svg>
