<?xml version="1.0" encoding="utf-8"?>
<!-- Generator: Adobe Illustrator 16.0.4, SVG Export Plug-In . SVG Version: 6.00 Build 0)  -->
<!DOCTYPE svg PUBLIC "-//W3C//DTD SVG 1.1//EN" "http://www.w3.org/Graphics/SVG/1.1/DTD/svg11.dtd">
<svg version="1.1" id="Layer_1" xmlns="http://www.w3.org/2000/svg" xmlns:xlink="http://www.w3.org/1999/xlink" x="0px" y="0px"
	 width="40.987px" height="27.687px" viewBox="0 0 40.987 27.687" enable-background="new 0 0 40.987 27.687" xml:space="preserve">
<path fill="#FFFFFF" d="M38.962,10.549c0,0,0.816,1.029,1.633,1.502c0,0,0.129-0.988-0.43-1.975c0,0,2.492-5.713-1.203-8.332
	c0,0-4.115-3.65-8.418-0.389c0,0-1.032-0.086-3.695,2.148l-5.111,2.92l-0.645,0.688l-5.455,2.32c0,0-0.816,0.943-1.719,1.33
	c0,0-2.921,0.773-3.393,0.816c0,0-2.105,0.73-1.076,1.289c0,0-4.811,1.246-5.67,1.633c0,0-0.43-0.215-0.772,0.258l-1.762,0.516
	L0,15.746l0.56,0.43l1.374-0.473l-0.815,0.773l0.471,0.516l0.559-0.344v0.6l0.302-0.686l1.46-0.516c0,0,0,0.215,1.031-0.215
	c0,0,5.627-1.461,6.83-1.375c0,0,1.762-0.086,0.816,0.387l-0.215-0.045c0,0-2.062,2.15-2.148,2.709l4.125-2.148
	c0,0,0.301,0.473,2.02,0.215c0,0-0.215,1.59,2.447,2.963c0,0,5.408,3.395,5.625,3.781c0,0,1.076,2.879,1.42,3.137l-2.791,0.814
	c0,0,1.289,0.516,4.596,0.559c0,0,1.117,1.375,1.719,0.645c0,0-1.074-1.416-2.105-1.631c0,0-4.254-3.309,0.086-4.125l0.301-0.902
	l2.191-2.449c0,0,0.257,1.033,5.455-3.566C35.312,14.799,37.847,9.773,38.962,10.549z"/>
</svg>
